<?xml version="1.0" standalone="no"?>
<!DOCTYPE svg PUBLIC "-//W3C//DTD SVG 20010904//EN"
 "http://www.w3.org/TR/2001/REC-SVG-20010904/DTD/svg10.dtd">
<svg version="1.0" xmlns="http://www.w3.org/2000/svg"
 width="256.000000pt" height="256.000000pt" viewBox="0 0 256.000000 256.000000"
 preserveAspectRatio="xMidYMid meet">
<metadata>
Created by potrace 1.11, written by Peter Selinger 2001-2013
</metadata>
<g transform="translate(0.000000,256.000000) scale(0.100000,-0.100000)"
fill="#000000" stroke="none">
<path d="M757 2306 c-161 -60 -203 -249 -134 -599 1 -5 -29 -20 -68 -33 -112
-39 -227 -100 -288 -154 -210 -188 -101 -413 266 -545 50 -19 91 -38 90 -43
-37 -167 -41 -355 -11 -440 40 -108 122 -172 222 -172 102 1 249 73 380 188
33 29 63 52 67 52 4 0 27 -18 51 -40 124 -115 291 -199 394 -200 100 0 183 64
221 172 31 87 27 273 -10 440 -1 5 40 24 90 43 180 65 300 151 349 251 23 46
26 63 21 110 -14 136 -153 255 -392 338 -38 13 -69 28 -68 34 37 177 41 352
10 440 -22 64 -62 115 -110 143 -59 34 -168 34 -247 0 -70 -30 -202 -118 -258
-171 -24 -22 -47 -40 -51 -40 -5 0 -28 18 -52 40 -163 150 -360 228 -472 186z
m220 -125 c56 -28 193 -129 220 -162 10 -13 1 -29 -53 -94 -36 -43 -77 -96
-92 -117 -19 -26 -36 -39 -57 -42 -16 -2 -84 -13 -150 -24 -66 -11 -121 -18
-123 -17 -11 9 -34 168 -35 245 -2 236 98 309 290 211z m839 8 c51 -48 70
-174 48 -329 -17 -122 -23 -142 -43 -136 -16 5 -156 29 -241 41 -41 6 -49 12
-95 73 -27 36 -69 88 -93 115 -50 57 -53 52 57 139 160 128 296 164 367 97z
m-467 -334 l62 -75 -131 0 -131 0 62 75 c34 41 65 75 69 75 4 0 35 -34 69 -75z
m128 -180 c17 -6 89 -120 158 -249 l57 -106 -55 -102 c-59 -113 -139 -242
-156 -253 -14 -8 -388 -8 -402 1 -17 10 -97 140 -156 251 l-55 103 53 99 c28
55 75 135 103 178 l51 78 70 5 c79 6 313 2 332 -5z m-587 -116 c-33 -55 -60
-106 -60 -112 0 -7 -5 -5 -14 3 -16 18 -71 168 -64 176 7 7 136 32 170 33 l27
1 -59 -101z m869 80 c28 -6 51 -16 51 -22 -1 -7 -16 -50 -34 -97 -32 -83 -33
-84 -48 -60 -8 14 -38 65 -67 114 l-51 88 49 -6 c28 -3 73 -11 100 -17z
m-1094 -66 c4 -16 27 -79 52 -140 l45 -113 -45 -112 c-25 -62 -48 -125 -52
-140 -9 -34 -17 -34 -100 -3 -258 97 -360 219 -280 335 42 60 161 135 287 180
73 26 85 25 93 -7z m1317 8 c121 -42 246 -116 287 -172 88 -119 -12 -246 -274
-344 -83 -31 -91 -31 -100 3 -4 15 -27 78 -52 139 l-45 113 51 129 c28 71 51
134 51 140 0 16 19 14 82 -8z m-1152 -391 c0 -5 27 -55 59 -110 50 -83 57
-100 41 -100 -25 0 -172 28 -178 34 -7 8 59 186 69 186 5 0 9 -4 9 -10z m950
-80 c18 -50 30 -93 28 -96 -6 -6 -153 -34 -178 -34 -16 0 -11 14 32 88 71 121
78 132 82 132 2 0 18 -41 36 -90z m-891 -220 c103 -16 138 -25 147 -39 7 -10
49 -63 93 -117 66 -80 78 -101 68 -113 -31 -38 -169 -138 -232 -167 -136 -65
-224 -43 -259 64 -27 81 -25 231 5 355 9 37 15 47 28 42 9 -2 76 -14 150 -25z
m960 -17 c17 -69 28 -185 24 -251 -11 -189 -105 -249 -272 -171 -68 31 -178
108 -223 156 l-27 28 96 119 c91 114 98 120 137 124 31 2 200 30 248 41 3 0
11 -20 17 -46z m-439 -11 c0 -8 -122 -152 -129 -152 -8 0 -16 9 -89 97 l-43
52 33 3 c44 4 228 4 228 0z"/>
<path d="M1189 1497 c-98 -52 -137 -173 -87 -267 73 -136 254 -147 343 -21 26
37 30 51 30 111 0 60 -4 74 -30 112 -59 84 -167 112 -256 65z"/>
</g>
</svg>
